<svg id="Calque_1" data-name="Calque 1" xmlns="http://www.w3.org/2000/svg" viewBox="0 0 371 237"><defs><style>.cls-1,.cls-2{fill:#1e91d1;}.cls-1,.cls-4{opacity:0.4;}.cls-3,.cls-4{fill:#8c8c8c;}.cls-5{fill:#fff;}</style></defs><title>Plan de travail 1</title><path class="cls-1" d="M82.21,214H82v-.2Z"/><path class="cls-1" d="M82.29,79c-.1.08-.19.18-.29.27V79Z"/><path class="cls-1" d="M277.15,210.7a9.7,9.7,0,0,1-2,.37H95.35a9.7,9.7,0,0,1-2-.37c12.41-10.62,48.66-41.44,71.52-59,3,2.43,5.71,4.64,7.85,6.37a19.45,19.45,0,0,0,25.09,0l7.85-6.38C228.5,169.26,264.74,200.08,277.15,210.7Z"/><path class="cls-1" d="M284.11,90.07V203a7.05,7.05,0,0,1-.47,2.1c-12-10.28-48-40.92-71.3-58.86,11.36-9.26,25.69-21,38.8-31.76l6.73-5.52C269,99.88,278.5,92,283.61,87.84A7,7,0,0,1,284.11,90.07Z"/><path class="cls-2" d="M120,74.91V75h0Z"/><path class="cls-2" d="M275.12,73.94H95.35A18.91,18.91,0,0,0,82.29,79c-.1.08-.19.18-.29.27a15.18,15.18,0,0,0-4.63,10.8V203A15.18,15.18,0,0,0,82,213.8l.21.2a18.91,18.91,0,0,0,13.14,5.13H275.12c9.92,0,18-7.23,18-16.13V90.07C293.1,81.17,285,73.94,275.12,73.94ZM120,74.91l0,.09h0ZM93.66,82.3a7.76,7.76,0,0,1,1.69-.3H275.12a9.5,9.5,0,0,1,1.87.34c-4.7,3.86-12.69,10.43-22.06,18.11l-7.39,6.06C227.12,123.26,203,143,191.76,152.1a9.75,9.75,0,0,1-13,0c-11.22-9.07-35.38-28.85-55.81-45.6l-1.9-1.56-1-.82-1.78-1.46-2.71-2.22-22-18.09ZM86.36,203V90.07a7,7,0,0,1,.5-2.23l25.71,21.1,6.73,5.52,1.7,1.4c12.65,10.37,26.27,21.52,37.13,30.38-23.27,17.94-59.29,48.59-71.3,58.86A7.05,7.05,0,0,1,86.36,203Zm188.76,8.07H95.35a9.7,9.7,0,0,1-2-.37c12.41-10.62,48.66-41.44,71.52-59,3,2.43,5.71,4.64,7.85,6.37a19.45,19.45,0,0,0,25.09,0l7.85-6.38c22.87,17.55,59.11,48.37,71.52,59A9.7,9.7,0,0,1,275.12,211.07Zm9-8.07a7.05,7.05,0,0,1-.47,2.1c-12-10.28-48-40.92-71.3-58.86,11.36-9.26,25.69-21,38.8-31.76l6.73-5.52C269,99.88,278.5,92,283.61,87.84a7,7,0,0,1,.5,2.23Z"/><path class="cls-1" d="M158.13,146.24c-23.27,17.94-59.29,48.59-71.3,58.86a7.05,7.05,0,0,1-.47-2.1V90.07a7,7,0,0,1,.5-2.23l25.71,21.1,6.73,5.52,1.7,1.4C133.65,126.23,147.27,137.38,158.13,146.24Z"/><path class="cls-1" d="M277,82.34c-4.7,3.86-12.69,10.43-22.06,18.11l-7.39,6.06C227.12,123.26,203,143,191.76,152.1a9.75,9.75,0,0,1-13,0c-11.22-9.07-35.38-28.85-55.81-45.6l-1.9-1.56-1-.82-1.78-1.46-2.71-2.22-22-18.09.18,0a7.76,7.76,0,0,1,1.69-.3H275.12A9.5,9.5,0,0,1,277,82.34Z"/><path class="cls-3" d="M120,74.91V75h0ZM76.67,133q.18.36.33.72V133Z"/><path class="cls-3" d="M119.48,73.94h-9.86A45.28,45.28,0,0,0,92.11,58.67l-64.85-33c-4.6,9.89-.22,21.45,10.91,27.11l34.38,17.5a3.41,3.41,0,0,1,1.5,5.1A4.89,4.89,0,0,1,68,76.63L29.84,57.22a13.37,13.37,0,0,0-.3,8.48A16.09,16.09,0,0,0,38,75.37l33.7,17.15a3.41,3.41,0,0,1,1.5,5.11,4.46,4.46,0,0,1-2.71,1.68,5.1,5.1,0,0,1-3.34-.43S32.19,81.07,31.6,80.71c-1.93,5.78.85,12.16,7.24,15.41l24.38,12.41A50.36,50.36,0,0,1,77,118.71V133h-.33c-.1-.21-.19-.42-.3-.62l0,0c-.2-.43-.42-.86-.65-1.28-.1-.21-.22-.41-.33-.61s-.22-.4-.35-.6-.1-.18-.16-.27c-.15-.27-.32-.54-.5-.81l-.06-.1-.27-.41-.09-.13q-.25-.39-.54-.78c-.08-.12-.16-.23-.25-.34-.18-.27-.38-.53-.59-.79s-.6-.77-.91-1.15-.39-.46-.59-.68c0,0,0,0,0-.05a7.23,7.23,0,0,0-.53-.59,1.41,1.41,0,0,0-.17-.18q-.19-.22-.42-.45a6.25,6.25,0,0,0-.44-.45,35,35,0,0,0-2.76-2.52l-.13-.1c-.26-.23-.53-.44-.8-.65-.91-.71-1.87-1.4-2.87-2-.31-.21-.63-.41-1-.61-.6-.37-1.22-.74-1.85-1.08-.47-.27-.94-.52-1.43-.77L34.27,102.49c-5.73-2.92-9.77-7.54-11.38-13a18.06,18.06,0,0,1,2-14.59A21.94,21.94,0,0,1,22,70.25a20.93,20.93,0,0,1-1-2.77A19.63,19.63,0,0,1,22,53.6a21.3,21.3,0,0,1,1.32-2.43c-.47-.54-.91-1.1-1.32-1.67a25.76,25.76,0,0,1-.34-31,3.14,3.14,0,0,1,.34-.4s0,0,.07-.08a4.61,4.61,0,0,1,2.3-1.21,5.1,5.1,0,0,1,3.34.43l1.53.78L96.67,52.3C107.07,57.6,114.82,65.24,119.48,73.94Z"/><path class="cls-4" d="M22.07,18s-.06.05-.07.08V18Z"/><path class="cls-4" d="M23.32,51.17A21.3,21.3,0,0,0,22,53.6V49.5C22.41,50.07,22.85,50.63,23.32,51.17Z"/><path class="cls-4" d="M109.62,73.94H95.35A18.91,18.91,0,0,0,82.29,79c-.1.08-.19.18-.29.27a15.18,15.18,0,0,0-4.63,10.8V133H77V118.71a50.36,50.36,0,0,0-13.78-10.18L38.84,96.12c-6.39-3.25-9.17-9.63-7.24-15.41.59.36,35.54,18.17,35.54,18.17a5.1,5.1,0,0,0,3.34.43,4.46,4.46,0,0,0,2.71-1.68,3.41,3.41,0,0,0-1.5-5.11L38,75.37a16.09,16.09,0,0,1-8.45-9.67,13.37,13.37,0,0,1,.3-8.48L68,76.63a4.89,4.89,0,0,0,6.07-1.26,3.41,3.41,0,0,0-1.5-5.1L38.17,52.77C27,47.11,22.66,35.55,27.26,25.66l64.85,33A45.28,45.28,0,0,1,109.62,73.94Z"/><path class="cls-3" d="M249.63,75h.05v-.09Zm43.05,58v.72q.15-.36.33-.72Z"/><path class="cls-3" d="M250.2,73.94h9.86a45.28,45.28,0,0,1,17.51-15.27l64.85-33c4.6,9.89.22,21.45-10.91,27.11l-34.38,17.5a3.41,3.41,0,0,0-1.5,5.1,4.89,4.89,0,0,0,6.07,1.26l38.14-19.41a13.37,13.37,0,0,1,.3,8.48,16.09,16.09,0,0,1-8.45,9.67L298,92.52a3.41,3.41,0,0,0-1.5,5.11,4.46,4.46,0,0,0,2.71,1.68,5.1,5.1,0,0,0,3.34-.43s34.95-17.81,35.54-18.17c1.93,5.78-.85,12.16-7.24,15.41l-24.38,12.41a50.36,50.36,0,0,0-13.78,10.18V133H293c.1-.21.19-.42.3-.62l0,0c.2-.43.42-.86.65-1.28.1-.21.22-.41.33-.61s.22-.4.35-.6.1-.18.16-.27c.15-.27.32-.54.5-.81l.06-.1.27-.41.09-.13q.25-.39.54-.78c.08-.12.16-.23.25-.34.18-.27.38-.53.59-.79s.6-.77.91-1.15.39-.46.59-.68c0,0,0,0,.05-.05a7.23,7.23,0,0,1,.53-.59,1.41,1.41,0,0,1,.17-.18q.19-.22.42-.45a6.25,6.25,0,0,1,.44-.45,35,35,0,0,1,2.76-2.52l.13-.1c.26-.23.53-.44.8-.65.91-.71,1.87-1.4,2.87-2,.31-.21.63-.41.95-.61.6-.37,1.22-.74,1.85-1.08.47-.27.94-.52,1.43-.77l24.39-12.41c5.73-2.92,9.77-7.54,11.38-13a18.06,18.06,0,0,0-2-14.59,21.94,21.94,0,0,0,2.87-4.64,20.93,20.93,0,0,0,1-2.77,19.63,19.63,0,0,0-1-13.88,21.3,21.3,0,0,0-1.32-2.43c.47-.54.91-1.1,1.32-1.67a25.76,25.76,0,0,0,.34-31,3.14,3.14,0,0,0-.34-.4s0,0-.07-.08a4.61,4.61,0,0,0-2.3-1.21,5.1,5.1,0,0,0-3.34.43l-1.53.78L273,52.3C262.61,57.6,254.86,65.24,250.2,73.94Z"/><path class="cls-4" d="M347.61,18s.06.05.07.08V18Z"/><path class="cls-4" d="M346.36,51.17a21.3,21.3,0,0,1,1.32,2.43V49.5C347.27,50.07,346.83,50.63,346.36,51.17Z"/><path class="cls-4" d="M260.06,73.94h14.27A18.91,18.91,0,0,1,287.39,79c.1.08.19.18.29.27a15.18,15.18,0,0,1,4.63,10.8V133h.37V118.71a50.36,50.36,0,0,1,13.78-10.18l24.38-12.41c6.39-3.25,9.17-9.63,7.24-15.41-.59.36-35.54,18.17-35.54,18.17a5.1,5.1,0,0,1-3.34.43,4.46,4.46,0,0,1-2.71-1.68,3.41,3.41,0,0,1,1.5-5.11l33.7-17.15a16.09,16.09,0,0,0,8.45-9.67,13.37,13.37,0,0,0-.3-8.48L301.7,76.63a4.89,4.89,0,0,1-6.07-1.26,3.41,3.41,0,0,1,1.5-5.1l34.38-17.5c11.13-5.66,15.51-17.22,10.91-27.11l-64.85,33A45.28,45.28,0,0,0,260.06,73.94Z"/><path class="cls-5" d="M199.56,95.65v36h-5.87V115.49H176.76v16.16h-5.82v-36h5.82v15.09h16.93V95.65Z"/></svg>